<svg width="495" height="493" viewBox="0 0 495 493" fill="none" xmlns="http://www.w3.org/2000/svg">
<path d="M12.5 187C12.5 85.1035 95.1035 2.5 197 2.5C298.897 2.5 381.5 85.1035 381.5 187V472.5H12.5V187Z" stroke="black"/>
<path d="M36 197C36 94.8273 118.827 12 221 12C323.173 12 406 94.8273 406 197V493H36V197Z" fill="url(#paint0_linear_200_1263)"/>
<path d="M142.437 29L188 14.9999L37.0003 349L37.0003 275.388L142.437 29Z" fill="#4D66FF" fill-opacity="0.6"/>
<rect x="4" y="271" width="19" height="41" fill="white"/>
<path d="M11.1931 280.273C11.2363 279.909 11.7637 279.909 11.8069 280.273L12.1687 283.322C12.6359 287.26 15.7404 290.364 19.678 290.831L22.7273 291.193C23.0909 291.236 23.0909 291.764 22.7273 291.807L19.678 292.169C15.7404 292.636 12.6359 295.74 12.1687 299.678L11.8069 302.727C11.7637 303.091 11.2363 303.091 11.1931 302.727L10.8313 299.678C10.3641 295.74 7.25959 292.636 3.32201 292.169L0.272621 291.807C-0.0908736 291.764 -0.0908736 291.236 0.272621 291.193L3.32201 290.831C7.25959 290.364 10.3641 287.26 10.8313 283.322L11.1931 280.273Z" fill="#194BF0"/>
<path d="M494.989 329.011C494.989 329.011 496.767 397.937 455.352 439.352C413.936 480.768 345.011 478.989 345.011 478.989C345.011 478.989 343.233 410.064 384.648 368.648C426.063 327.233 494.989 329.011 494.989 329.011Z" fill="#4338CA"/>
<defs>
<linearGradient id="paint0_linear_200_1263" x1="221" y1="292" x2="221" y2="493" gradientUnits="userSpaceOnUse">
<stop stop-color="#3F5AFF"/>
<stop offset="1" stop-color="#E3E3E3"/>
</linearGradient>
</defs>
</svg>
