<svg width="23" height="23" viewBox="0 0 23 23" fill="none" xmlns="http://www.w3.org/2000/svg">
<path d="M11.1931 0.272621C11.2363 -0.0908736 11.7637 -0.0908736 11.8069 0.272621L12.1687 3.32201C12.6359 7.25959 15.7404 10.3641 19.678 10.8313L22.7273 11.1931C23.0909 11.2363 23.0909 11.7637 22.7273 11.8069L19.678 12.1687C15.7404 12.6359 12.6359 15.7404 12.1687 19.678L11.8069 22.7273C11.7637 23.0909 11.2363 23.0909 11.1931 22.7273L10.8313 19.678C10.3641 15.7404 7.25959 12.6359 3.32201 12.1687L0.272621 11.8069C-0.0908736 11.7637 -0.0908736 11.2363 0.272621 11.1931L3.32201 10.8313C7.25959 10.3641 10.3641 7.25959 10.8313 3.32201L11.1931 0.272621Z" fill="#194BF0"/>
</svg>
